<svg width="168" height="157" viewBox="0 0 168 157" fill="none" xmlns="http://www.w3.org/2000/svg">
<path fill-rule="evenodd" clip-rule="evenodd" d="M82.358 3.27319C81.2051 5.80531 81.3649 8.01092 83.0652 12.9993C86.3804 22.7294 85.9388 37.1038 82.0694 45.4128C76.7735 56.785 65.2537 65.5099 48.3445 70.9562C46.1727 71.6552 45.9736 74.4813 45.9736 104.646V137.573L53.6309 139.353C57.8416 140.333 67.2561 143.46 74.5517 146.303C96.0631 154.685 104.138 156.35 123.643 156.418L135.085 156.458C138.861 156.472 142.463 154.869 144.981 152.054C148.044 148.629 148.938 146.325 148.938 141.851C148.938 136.698 149.369 135.911 152.936 134.565C157.547 132.824 162.501 125.515 162.42 120.577C162.389 118.714 161.566 115.361 160.592 113.126C158.923 109.297 159.057 108.861 162.891 105.596C166.313 102.68 167.064 100.905 167.599 94.4389C168.198 87.2232 167.98 86.5092 164.062 82.8486C160.294 79.3288 160.075 78.6975 161.82 76.3916C164.34 73.0656 164.358 65.896 161.86 61.0661C158.865 55.2717 151.212 52.8371 135.997 52.8371C115.139 52.8371 109.649 49.0152 109.649 34.4918C109.649 22.2227 106.464 13.1578 99.6547 6.05187C94.8384 1.02558 93.0081 0 88.8529 0C84.8766 0 83.5435 0.67198 82.358 3.27319ZM1.41158 66.885C0.315545 68.2073 -0.0245111 81.3664 0.230191 112.609L0.587857 156.479L17.115 156.858C32.5706 157.215 33.737 157.059 35.1203 154.474C36.1255 152.598 36.4737 138.197 36.2068 109.674C35.8736 74.079 35.501 67.4418 33.7804 66.3553C30.4435 64.2472 3.23107 64.6929 1.41158 66.885ZM14.4995 138C12.4995 139.6 12.4995 141.5 12.9995 144C13.5276 146.64 16.4525 147.817 18.5579 147.402C21.9164 146.739 23.8524 142.645 22.1129 139.883C20.078 136.652 16.2649 136.588 14.4995 138Z" fill="#323232"/>
</svg>
