<svg width="158" height="157" viewBox="0 0 158 157" fill="none" xmlns="http://www.w3.org/2000/svg">
<path fill-rule="evenodd" clip-rule="evenodd" d="M47.1453 2.12931C36.1727 5.07848 26.7254 10.7723 18.0793 19.6486C-6.18348 44.5582 -5.13226 84.2924 20.4287 108.464C40.2443 127.203 67.488 131.211 92.2416 119.029L101.778 114.335L123.41 135.784C146.078 158.258 148.923 159.935 154.654 154.203C160.386 148.471 158.709 145.626 136.235 122.959L114.787 101.327L119.566 91.6191C131.43 67.5198 127.376 39.4975 109.253 20.3348C92.849 2.98968 69.4602 -3.86747 47.1453 2.12931ZM49.9597 19.9697C26.0589 28.5097 13.5306 52.0985 20.3817 75.663C24.0064 88.1322 31.5573 97.0236 43.5282 102.917C61.6851 111.856 80.7767 108.861 95.1135 94.8272C118.999 71.446 108.796 29.6124 76.8975 20.1409C67.6637 17.3977 57.3379 17.3326 49.9597 19.9697ZM55.3627 35.3744C49.9612 38.0403 45.5942 44.7127 45.5942 50.299C45.5942 55.7277 49.5386 55.34 50.6458 49.8037C53.7056 34.5019 75.8887 36.3363 75.8887 51.8909C75.8887 57.3318 75.1571 58.327 65.6643 65.7809C61.7912 68.8225 60.7415 70.7735 60.7415 74.9253C60.7415 79.1332 61.2792 80.1011 63.3922 79.7012C65.0009 79.3953 66.2338 77.5458 66.5262 74.998C66.8655 72.0579 68.7422 69.7056 72.7835 67.1548C81.7612 61.4867 84.3226 51.3275 78.9787 42.5663C73.6575 33.8385 64.2692 30.9787 55.3627 35.3744ZM60.9974 90.8284C61.2731 92.7763 62.5213 94.3713 63.7709 94.3713C67.0563 94.3713 66.6034 88.4624 63.2695 87.8201C61.1186 87.4051 60.6082 88.0807 60.9974 90.8284Z" fill="#323232"/>
</svg>
