<svg width="139" height="157" viewBox="0 0 139 157" fill="none" xmlns="http://www.w3.org/2000/svg">
<g clip-path="url(#clip0_586_9111)">
<path d="M134.508 49.0625H4.49219C2.46008 49.0625 0.8125 47.4149 0.8125 45.3828V34.3438C0.8125 26.2147 7.40221 19.625 15.5312 19.625H30.25V3.67969C30.25 1.64758 31.8976 0 33.9297 0H46.1953C48.2274 0 49.875 1.64758 49.875 3.67969V19.625H89.125V3.67969C89.125 1.64758 90.7726 0 92.8047 0H105.07C107.102 0 108.75 1.64758 108.75 3.67969V19.625H123.469C131.598 19.625 138.188 26.2147 138.188 34.3438V45.3828C138.188 47.4149 136.54 49.0625 134.508 49.0625ZM4.49219 58.875H134.508C136.54 58.875 138.188 60.5226 138.188 62.5547V142.281C138.188 150.41 131.598 157 123.469 157H15.5312C7.40221 157 0.8125 150.41 0.8125 142.281V62.5547C0.8125 60.5226 2.46008 58.875 4.49219 58.875ZM106.694 88.2962L98.0565 79.5883C96.6254 78.1455 94.2956 78.136 92.8528 79.5674L60.3376 111.821L46.2382 97.6077C44.8072 96.1649 42.477 96.1554 41.0342 97.5868L32.3266 106.225C30.8838 107.656 30.8743 109.986 32.3057 111.429L57.6345 136.962C59.0656 138.405 61.3955 138.415 62.8382 136.983L106.673 93.4999C108.116 92.0688 108.126 89.739 106.694 88.2962Z" fill="#323232"/>
</g>
<defs>
<clipPath id="clip0_586_9111">
<rect width="137.375" height="157" fill="white" transform="translate(0.8125)"/>
</clipPath>
</defs>
</svg>
