<svg width="184" height="157" viewBox="0 0 184 157" fill="none" xmlns="http://www.w3.org/2000/svg">
<path d="M101.862 20.8063L128.765 47.7089C129.124 48.068 129.447 48.4498 129.733 48.8499C128.117 49.6174 126.628 50.6612 125.334 51.9548L95.7829 81.5062C94.4893 82.7998 93.4458 84.2895 92.6781 85.9053C92.278 85.6185 91.8962 85.2956 91.5373 84.9367L64.6346 58.034C64.2755 57.6749 63.9526 57.2931 63.6658 56.893C65.2816 56.1254 66.7713 55.0818 68.0649 53.7882L97.6163 24.2368C98.9099 22.943 99.9537 21.4535 100.721 19.8375C101.121 20.1244 101.503 20.4472 101.862 20.8063Z" fill="#323232"/>
<path d="M47.629 51.7618C45.0954 49.2282 43.8281 45.8911 43.8281 42.5568C43.8281 39.2225 45.0951 35.8857 47.6287 33.3521L77.1801 3.80069C79.7138 1.26693 83.0505 0 86.3848 0C89.7191 0 93.0558 1.26709 95.5896 3.80083C98.1233 6.33459 99.3905 9.67142 99.3905 13.0057C99.3905 16.34 98.1236 19.6767 95.5898 22.2105L66.0385 51.7618C63.5049 54.2954 60.168 55.5624 56.8337 55.5624C53.4994 55.5624 50.1626 54.2954 47.629 51.7618Z" fill="#323232"/>
<path d="M107.014 105.743C103.693 105.743 100.369 104.486 97.8395 101.972L97.8088 101.942C95.2751 99.4083 94.0083 96.0714 94.0083 92.7371C94.0083 89.4028 95.2754 86.0661 97.809 83.5325L127.36 53.9811C129.894 51.4473 133.231 50.1804 136.565 50.1804C139.871 50.1804 143.179 51.4261 145.704 53.9164C145.749 53.9588 145.793 54.0028 145.836 54.0484C148.326 56.5738 149.571 59.8809 149.571 63.1861C149.571 66.5203 148.304 69.857 145.77 72.3907L116.219 101.942C113.685 104.476 110.349 105.743 107.014 105.743Z" fill="#323232"/>
<path d="M83.1202 80.5735L61.5248 102.169C60.4057 103.288 58.5912 103.288 57.4721 102.169L47.1572 91.8541C46.0381 90.7349 46.0378 88.9205 47.1569 87.8013L68.7526 66.2061L83.1202 80.5735Z" fill="#323232"/>
<path d="M50.3734 86.9651L62.3611 98.9528C64.1474 100.739 65.0407 103.091 65.0407 105.44C65.0407 107.789 64.1472 110.14 62.3611 111.926L27.9319 146.356C26.1455 148.142 23.7941 149.035 21.445 149.035C19.096 149.035 16.7443 148.142 14.9582 146.356L2.97047 134.368C1.19169 132.589 0.302018 130.237 0.302157 127.881C0.302157 125.532 1.18449 123.181 2.97061 121.394L37.3998 86.9651C39.1861 85.1788 41.5376 84.2856 43.8866 84.2856C46.2357 84.2856 48.5872 85.1788 50.3734 86.9651Z" fill="#323232"/>
<path d="M95.8827 134.66H180.843C182.426 134.66 183.709 135.943 183.709 137.526V154.135C183.709 155.717 182.426 157 180.843 157H95.8827C94.3 157 93.0168 155.717 93.0168 154.135V137.526C93.0168 135.943 94.3 134.66 95.8827 134.66Z" fill="#323232"/>
<path d="M107.709 131.794V120.917C107.709 119.334 108.993 118.051 110.575 118.051H166.151C167.733 118.051 169.017 119.334 169.017 120.917V131.794H107.709Z" fill="#323232"/>
</svg>
