<svg width="158" height="157" viewBox="0 0 158 157" fill="none" xmlns="http://www.w3.org/2000/svg">
<path d="M79 0C79 0 30.4399 46.5767 3.30245 71.8013C1.7089 73.4062 0.5 75.7438 0.5 78.5C0.5 83.3234 4.00895 87.2222 8.35 87.2222H24.05V148.278C24.05 153.101 27.559 157 31.9 157H55.45C59.791 157 63.3 153.092 63.3 148.278V113.389H94.7V148.278C94.7 153.092 98.2089 157 102.55 157H126.1C130.441 157 133.95 153.101 133.95 148.278V87.2222H149.65C153.991 87.2222 157.5 83.3234 157.5 78.5C157.5 75.7438 156.291 73.4062 154.493 71.8013C127.544 46.5767 79 0 79 0Z" fill="#323232"/>
</svg>
