<svg width="123" height="157" viewBox="0 0 123 157" fill="none" xmlns="http://www.w3.org/2000/svg">
<path fill-rule="evenodd" clip-rule="evenodd" d="M2.18822 2.31575C0.289022 4.41373 0.0927734 11.5319 0.0927734 78.3658C0.0927734 126.772 0.54352 152.943 1.40322 154.551C2.47437 156.552 4.09501 157 10.2661 157H17.8186V78.5V0H11.0511C6.10309 0 3.72023 0.622938 2.18822 2.31575ZM25.4154 78.5V157H72.642C107.686 157 120.261 156.607 121.388 155.481C122.535 154.334 122.907 135.632 122.907 79.0761C122.907 8.13615 122.786 4.08073 120.592 2.09544C118.526 0.225369 113.273 0 71.8456 0H25.4154V78.5ZM64.2045 53.7624C62.3547 55.4767 60.2466 58.442 59.5211 60.3526C57.8219 64.8207 59.1298 72.4948 62.2698 76.4869L64.7287 79.6129L57.1002 87.0324C48.8869 95.0204 47.5194 99.1316 51.7914 102.997C56.9027 107.624 79.0549 108.815 89.679 105.036C93.98 103.506 95.9109 99.657 94.5397 95.3408C93.6736 92.6097 88.3458 86.6361 83.2192 82.6466L79.6145 79.8434L82.2354 76.5109C87.6962 69.5687 86.7277 58.309 80.2299 53.1977C75.6224 49.574 68.4511 49.826 64.2045 53.7624Z" fill="#323232"/>
</svg>
