<svg width="158" height="157" viewBox="0 0 158 157" fill="none" xmlns="http://www.w3.org/2000/svg">
<path d="M148.859 9.95052C147.698 9.67439 146.476 9.82343 145.415 10.3706L137.875 14.1362L130.27 10.3338C129.589 9.99323 128.838 9.81592 128.076 9.81592C127.315 9.81592 126.563 9.99323 125.882 10.3338L118.182 14.1392L110.584 10.3338C109.901 9.99074 109.147 9.81208 108.382 9.81208C107.618 9.81208 106.864 9.99074 106.181 10.3338L98.6249 14.127L91.1275 10.343C90.4462 9.99758 89.6935 9.81604 88.9296 9.81284C88.1656 9.80965 87.4115 9.98489 86.7273 10.3246L78.9999 14.1423L71.3952 10.3308C70.7129 9.99033 69.9607 9.81313 69.1981 9.81313C68.4356 9.81313 67.6834 9.99033 67.0011 10.3308L59.3749 14.1362L51.758 10.3308C50.776 9.83853 49.6573 9.69005 48.5809 9.9091C47.5046 10.1282 46.5329 10.7021 45.8214 11.5389C45.0546 12.4529 44.6411 13.6117 44.6562 14.8046V88.3125L44.6715 88.3279H103.531C106.134 88.3279 108.629 89.3617 110.47 91.2019C112.31 93.0421 113.344 95.5379 113.344 98.1404V130.016C113.344 139.5 123.484 147.188 132.969 147.188H136.648C140.877 147.188 144.933 145.508 147.923 142.517C150.914 139.527 152.594 135.471 152.594 131.242V14.7188C152.595 13.6207 152.227 12.554 151.55 11.6895C150.873 10.825 149.925 10.2127 148.859 9.95052ZM128.062 73.5938H88.9657C86.3164 73.5938 84.0288 71.5577 83.9123 68.9083C83.8825 68.2462 83.9871 67.5849 84.2199 66.9643C84.4527 66.3438 84.8088 65.7768 85.2667 65.2977C85.7247 64.8185 86.2749 64.4371 86.8843 64.1765C87.4937 63.9159 88.1496 63.7814 88.8124 63.7813H127.909C130.558 63.7813 132.846 65.8174 132.963 68.4667C132.992 69.1289 132.888 69.7902 132.655 70.4107C132.422 71.0313 132.066 71.5983 131.608 72.0774C131.15 72.5565 130.6 72.9379 129.99 73.1986C129.381 73.4592 128.725 73.5936 128.062 73.5938ZM128.062 49.0625H69.3407C66.6914 49.0625 64.4038 47.0264 64.2873 44.3771C64.2575 43.7149 64.3621 43.0536 64.5949 42.4331C64.8277 41.8125 65.1838 41.2456 65.6417 40.7664C66.0997 40.2873 66.6499 39.9059 67.2593 39.6453C67.8687 39.3846 68.5246 39.2502 69.1874 39.25H127.909C130.558 39.25 132.846 41.2861 132.963 43.9355C132.992 44.5976 132.888 45.2589 132.655 45.8795C132.422 46.5 132.066 47.067 131.608 47.5462C131.15 48.0253 130.6 48.4067 129.99 48.6673C129.381 48.9279 128.725 49.0624 128.062 49.0625Z" fill="#323232"/>
<path d="M103.531 130.016V103.031C103.531 101.73 103.014 100.482 102.094 99.562C101.174 98.6419 99.9262 98.125 98.625 98.125H15.2188C12.6162 98.1331 10.1227 99.1716 8.2838 101.013C6.44492 102.855 5.41029 105.35 5.40625 107.953C5.40625 123.454 7.17863 129.899 9.84027 134.805C14.3571 143.137 22.5352 147.188 34.8438 147.188H110.179C110.421 147.188 110.658 147.116 110.859 146.982C111.061 146.848 111.218 146.658 111.312 146.434C111.405 146.211 111.43 145.965 111.384 145.728C111.338 145.49 111.223 145.272 111.053 145.099C108.152 142.189 103.531 138.295 103.531 130.016Z" fill="#323232"/>
</svg>
