<svg width="62" height="61" viewBox="0 0 62 61" fill="none" xmlns="http://www.w3.org/2000/svg">
<rect x="0.012207" width="61" height="61" rx="30.5" fill="#1E4391"/>
<path d="M30.5122 13.2361L33.9392 23.7832C34.2069 24.6072 34.9748 25.1652 35.8413 25.1652H46.9312L37.9593 31.6836C37.2583 32.1929 36.965 33.0957 37.2327 33.9197L40.6597 44.4668L31.6878 37.9483C30.9868 37.439 30.0376 37.4391 29.3366 37.9483L20.3647 44.4668L23.7917 33.9197C24.0594 33.0956 23.7661 32.1929 23.0651 31.6836L22.4774 32.4926L23.0651 31.6836L14.0932 25.1651L25.1831 25.1652C26.0496 25.1652 26.8175 24.6072 27.0852 23.7832L30.5122 13.2361Z" stroke="white" stroke-width="2"/>
</svg>
