<svg width="200" height="200" viewBox="0 0 200 200" fill="none" xmlns="http://www.w3.org/2000/svg">
<g clip-path="url(#clip0_425_11206)">
<path d="M100 0C100 0 38.14 59.3333 3.57 91.4667C1.54 93.5111 0 96.4889 0 100C0 106.144 4.47 111.111 10 111.111H30V188.889C30 195.033 34.47 200 40 200H70C75.53 200 80 195.022 80 188.889V144.444H120V188.889C120 195.022 124.47 200 130 200H160C165.53 200 170 195.033 170 188.889V111.111H190C195.53 111.111 200 106.144 200 100C200 96.4889 198.46 93.5111 196.17 91.4667C161.84 59.3333 100 0 100 0Z" fill="#323232"/>
</g>
<defs>
<clipPath id="clip0_425_11206">
<rect width="200" height="200" fill="white"/>
</clipPath>
</defs>
</svg>
