<svg width="250" height="201" viewBox="0 0 250 201" fill="none" xmlns="http://www.w3.org/2000/svg">
<path d="M219.475 136.35C196.373 128.175 197.768 131.455 197.768 116.303C197.768 106.514 202.958 110.107 206.25 91.4655C207.534 84.1237 208.594 89.0182 211.328 77.2505C212.779 71.1062 210.324 70.6376 210.658 67.7217C210.938 64.8058 211.217 62.1502 211.775 56.1622C212.444 48.6642 205.301 29.0859 179.743 29.0859C154.185 29.0859 147.043 48.6642 147.712 56.1622C148.214 62.2023 148.549 64.8058 148.828 67.7217C149.107 70.6376 146.708 71.1062 148.159 77.2505C150.893 89.0182 151.953 84.0716 153.237 91.4655C156.529 110.107 161.663 106.566 161.663 116.303C161.663 123.28 163.393 126.196 153.348 130.622C156.362 131.611 159.877 132.809 164.118 134.319C194.475 145.097 193.75 155.563 194.531 160.51C195.089 163.895 195.368 190.867 195.48 200.5H250C250 200.5 250 158.583 249.163 153.689C248.549 149.836 243.025 144.733 219.475 136.35Z" fill="#323232"/>
<path d="M181.361 200.5C181.361 200.5 181.361 193.158 181.25 184.671C181.138 174.986 180.859 163.843 180.301 160.51C179.464 155.564 172.321 148.951 142.02 138.172C137.835 136.715 134.319 135.517 131.25 134.476C112.667 128.331 114.007 126.301 114.007 109.482C114.007 96.8291 120.703 105.056 124.944 81.0519C126.618 71.5752 127.957 77.8757 131.473 62.7234C133.37 54.8088 130.19 54.1839 130.58 50.3828C130.971 46.5817 131.361 43.1972 132.031 35.4388C132.924 25.8059 123.716 0.5 90.6807 0.5C57.645 0.5 48.4932 25.7538 49.3303 35.4388C49.9999 43.1972 50.3905 46.5817 50.837 50.3828C51.2276 54.1839 48.0468 54.7567 49.9441 62.7234C53.5155 77.8757 54.8548 71.5752 56.5289 81.0519C60.77 105.056 67.4106 96.8291 67.4106 109.482C67.4106 129.06 69.2521 127.602 39.3973 138.172C9.09597 148.951 1.95312 155.564 1.11607 160.51C0 166.811 0 200.5 0 200.5H90.6807H181.361Z" fill="#323232"/>
</svg>
