<svg width="170" height="200" viewBox="0 0 170 200" fill="none" xmlns="http://www.w3.org/2000/svg">
<path d="M43.4521 199.73L12.5114 195.996C11.5068 195.874 10.751 195.022 10.751 194.01V148.386C10.751 147.281 9.85556 146.386 8.75099 146.386H2C0.895431 146.386 0 145.49 0 144.386V130.916C0 129.811 0.895433 128.916 2 128.916H8.75099C9.85556 128.916 10.751 128.02 10.751 126.916V10.2821C10.751 9.23855 11.5533 8.3704 12.5936 8.28828L117.348 0.0190067C117.508 0.00638142 117.669 0.0130462 117.827 0.0388569L167.66 8.16191C168.623 8.31887 169.333 9.14771 169.339 10.1233L169.989 113.928C169.995 114.924 169.269 115.772 168.285 115.919L117.819 123.46C117.666 123.482 117.511 123.487 117.357 123.475L47.8587 117.651C46.6923 117.554 45.6917 118.474 45.6917 119.644V127.074C45.6917 128.115 46.4896 128.982 47.5266 129.068L167.493 139.005C168.53 139.091 169.328 139.957 169.328 140.998V155.473C169.328 156.477 168.583 157.326 167.587 157.456L132.646 162.012C132.464 162.036 132.28 162.035 132.098 162.008L47.9805 149.732C46.7738 149.556 45.6917 150.491 45.6917 151.711V197.744C45.6917 198.944 44.643 199.873 43.4521 199.73Z" fill="#323232"/>
<path d="M49.1673 102.146L25.6021 100.225C24.0449 100.098 22.8458 98.7972 22.8458 97.2348V69.8072C22.8458 68.1742 24.152 66.8411 25.7847 66.8078L49.3499 66.3277C51.0303 66.2934 52.411 67.6463 52.411 69.327V99.1554C52.411 100.908 50.9144 102.288 49.1673 102.146Z" fill="white"/>
<path d="M49.411 57.8316H25.7855C24.1524 57.8316 22.8193 56.5252 22.7862 54.8924L22.2323 27.5824C22.1996 25.9719 23.4447 24.6231 25.0527 24.527L49.232 23.0818C50.9562 22.9788 52.411 24.3492 52.411 26.0765V54.8316C52.411 56.4884 51.0678 57.8316 49.411 57.8316Z" fill="white"/>
<path d="M99.1343 57.8316H64.8181C63.1612 57.8316 61.8181 56.4884 61.8181 54.8316V25.6349C61.8181 24.0818 63.0034 22.7855 64.5502 22.6469L98.8664 19.5703C100.622 19.4129 102.134 20.7957 102.134 22.5583V54.8316C102.134 56.4884 100.791 57.8316 99.1343 57.8316Z" fill="white"/>
<path d="M61.8181 99.6256V69.177C61.8181 67.555 63.1072 66.2268 64.7285 66.1783L99.0447 65.1528C100.736 65.1023 102.134 66.4595 102.134 68.1515V102.189C102.134 103.934 100.651 105.311 98.9108 105.181L64.5946 102.617C63.0288 102.5 61.8181 101.196 61.8181 99.6256Z" fill="white"/>
</svg>
