<svg width="401" height="604" viewBox="0 0 401 604" fill="none" xmlns="http://www.w3.org/2000/svg">
<rect width="401" height="604" rx="22" fill="#D9D9D9"/>
<path d="M148.333 351C144.392 351 141.016 349.595 138.207 346.786C135.398 343.977 133.995 340.604 134 336.667V236.333C134 232.392 135.405 229.016 138.214 226.207C141.023 223.398 144.396 221.995 148.333 222H248.667C252.608 222 255.984 223.405 258.793 226.214C261.603 229.023 263.005 232.396 263 236.333V336.667C263 340.608 261.595 343.984 258.786 346.793C255.977 349.603 252.604 351.005 248.667 351H148.333ZM148.333 336.667H248.667V236.333H148.333V336.667ZM155.5 322.333H241.5L214.625 286.5L193.125 315.167L177 293.667L155.5 322.333Z" fill="black"/>
</svg>
